<?xml version="1.0" standalone="no"?>
<!DOCTYPE svg PUBLIC "-//W3C//DTD SVG 20010904//EN"
 "http://www.w3.org/TR/2001/REC-SVG-20010904/DTD/svg10.dtd">
<svg version="1.0" xmlns="http://www.w3.org/2000/svg"
 width="512.000000pt" height="512.000000pt" viewBox="0 0 512.000000 512.000000"
 preserveAspectRatio="xMidYMid meet">
<metadata>
Created by potrace 1.14, written by Peter Selinger 2001-2017
</metadata>
<g transform="translate(0.000000,512.000000) scale(0.100000,-0.100000)"
fill="#000000" stroke="none">
<path d="M2473 4605 c-35 -36 -65 -65 -68 -65 -2 0 -33 -28 -68 -62 -34 -35
-92 -88 -127 -119 -36 -31 -104 -94 -151 -140 -48 -46 -124 -118 -170 -159
-88 -79 -181 -166 -284 -265 -35 -33 -96 -89 -136 -125 -40 -36 -99 -90 -130
-120 -31 -30 -106 -100 -165 -155 -120 -110 -215 -199 -279 -260 -24 -22 -69
-64 -101 -94 -76 -69 -263 -243 -325 -302 -27 -26 -49 -55 -49 -65 0 -11 36
-57 80 -103 44 -46 80 -85 80 -87 0 -10 36 -44 47 -44 6 0 15 -10 19 -22 4
-13 5 -466 3 -1008 l-4 -985 1915 0 1915 0 -4 985 c-2 542 -1 995 3 1008 4 12
13 22 20 22 7 0 25 15 39 34 15 18 59 67 97 107 38 41 70 82 70 93 0 18 -53
74 -186 195 -135 124 -249 229 -298 275 l-51 48 -3 484 -3 484 -267 -2 -267
-3 -3 -228 -2 -227 -37 32 c-19 18 -68 65 -108 103 -68 65 -182 171 -283 261
-24 22 -78 73 -121 114 -43 41 -118 111 -167 155 -49 44 -110 101 -136 128
-27 26 -50 47 -52 47 -2 0 -33 29 -69 65 -44 44 -73 65 -89 65 -15 -1 -45 -23
-85 -65z"/>
</g>
</svg>
